<svg width="104" height="102" viewBox="0 0 104 102" fill="none" xmlns="http://www.w3.org/2000/svg">
<path d="M102 56V7C102 4.23858 99.7614 2 97 2H7C4.23858 2 2 4.23858 2 7V77.0752C2 79.8366 4.23858 82.0752 7 82.0752H34.0206C35.5731 82.0752 37.0374 82.7963 37.9839 84.0268L48.0732 97.1438C50.0023 99.6519 53.7468 99.7599 55.8173 97.3671L67.5543 83.8034C68.504 82.7059 69.8838 82.0752 71.3353 82.0752H97C99.7614 82.0752 102 79.8366 102 77.0752V69.5" stroke="black" stroke-width="4" stroke-linecap="round"/>
<path d="M52 38V66" stroke="black" stroke-width="4" stroke-linecap="round"/>
<path d="M52 28C53.1046 28 54 27.1046 54 26C54 24.8954 53.1046 24 52 24C50.8954 24 50 24.8954 50 26C50 27.1046 50.8954 28 52 28Z" fill="black"/>
</svg>
