<svg width="100" height="100" viewBox="0 0 100 100" fill="none" xmlns="http://www.w3.org/2000/svg">
<path d="M43 2L40 15L32.5 18L20.5 11.5L11.5 21L18 32.5L15 39.5L2 43V56.5L15 59.5L18 68L11 79L20.5 88.5L32.5 82L40 85L43 98H56.5L60 85L67 82L79 88.5L88.5 79L82 67L85 60.5L98 56.5V43L85 39.5L82 32.5L88.5 20.5L79 11.5L67 18L60 15L56.5 2H43Z" stroke="black" stroke-width="4" stroke-linejoin="round"/>
<path d="M74.078 57.8466C78.1845 44.5292 70.8176 30.4351 57.6235 26.3666C44.4295 22.2981 30.4045 29.7958 26.298 43.1132C22.5362 55.3127 29.034 69.8739 42.8902 74.1466C51.1566 76.6956 57.5832 74.702 63.8181 71.2549" stroke="black" stroke-width="4" stroke-linecap="round"/>
<path d="M68.0931 64.9661C67.7529 66.017 68.3289 67.1447 69.3798 67.4849C70.4307 67.8251 71.5584 67.249 71.8986 66.1982C72.2388 65.1473 71.6628 64.0196 70.6119 63.6794C69.561 63.3391 68.4333 63.9152 68.0931 64.9661Z" fill="black"/>
</svg>
